<?xml version="1.0" encoding="UTF-8"?><svg id="Layer_1" xmlns="http://www.w3.org/2000/svg" viewBox="0 0 200 95"><defs><style>.cls-1{fill:#fff;}</style></defs><path class="cls-1" d="M11.61,76.26h-3.43c-.35,0-.61.08-.8.24-.19.16-.28.4-.28.71s.09.53.28.71c.19.18.45.26.8.26h2.28v3.33c-.37.11-.75.21-1.14.28-.57.11-1.13.16-1.68.16-1.61,0-2.82-.43-3.63-1.3-.82-.87-1.23-2.13-1.23-3.8,0-1.1.18-2.02.53-2.78.35-.76.88-1.34,1.59-1.74.71-.4,1.57-.6,2.6-.6.66,0,1.27.07,1.81.2.54.14,1.07.35,1.6.65.28.15.53.2.76.16s.42-.14.57-.3c.15-.16.26-.36.31-.58.06-.22.04-.44-.03-.66-.08-.22-.23-.4-.47-.55-.69-.43-1.43-.74-2.21-.92-.78-.18-1.56-.27-2.34-.27-1.18,0-2.23.17-3.16.52-.93.34-1.71.84-2.36,1.48-.64.64-1.14,1.42-1.47,2.32-.34.91-.51,1.93-.51,3.07,0,1.5.29,2.8.87,3.9.58,1.1,1.43,1.94,2.54,2.54,1.11.6,2.48.89,4.1.89.76,0,1.54-.07,2.33-.21.79-.14,1.49-.32,2.1-.54.26-.09.45-.24.57-.45.12-.2.18-.45.18-.75v-4.93c0-.34-.09-.6-.28-.78-.19-.18-.45-.27-.8-.27Z"/><path class="cls-1" d="M24.37,71.75c.35,0,.61-.09.8-.27.19-.18.28-.44.28-.78s-.09-.57-.28-.75c-.19-.18-.45-.26-.8-.26h-7.41c-.46,0-.81.12-1.05.36-.24.24-.36.58-.36,1.03v11.55c0,.45.12.79.36,1.03.24.24.59.36,1.05.36h7.41c.35,0,.61-.09.8-.26.19-.18.28-.43.28-.77s-.09-.6-.28-.77c-.19-.18-.45-.26-.8-.26h-6.27v-4.16h5.81c.36,0,.63-.09.81-.26.18-.18.27-.43.27-.77s-.09-.6-.27-.77c-.18-.18-.45-.26-.81-.26h-5.81v-3.94h6.27Z"/><path class="cls-1" d="M20.7,68.36c.15.12.33.19.53.19.2,0,.39-.08.57-.24l2.12-2.01c.19-.18.28-.37.28-.56,0-.2-.06-.38-.19-.54-.12-.16-.28-.29-.49-.37-.2-.09-.41-.11-.63-.08-.22.03-.41.16-.57.38l-1.75,2.23c-.14.18-.18.36-.15.54.04.18.13.33.29.45Z"/><path class="cls-1" d="M35.13,70.62c-.18-.39-.4-.67-.65-.84-.26-.17-.54-.25-.86-.25s-.63.08-.88.25c-.26.17-.47.45-.65.84l-5.48,11.88c-.14.31-.19.59-.15.84.04.25.16.45.36.6.2.15.47.22.8.22.36,0,.64-.09.83-.26.19-.18.38-.46.56-.85l1.02-2.35h7.14l1.04,2.35c.17.38.36.66.57.84.21.18.52.27.9.27.32,0,.57-.07.77-.21.19-.14.31-.34.35-.6.04-.26-.01-.54-.17-.85l-5.5-11.88ZM33.57,72.51h.04l2.65,6.11h-5.31l2.63-6.11Z"/><path class="cls-1" d="M53.81,69.52c-.4,0-.71.11-.92.32-.21.22-.32.52-.32.91v8.92l-7.41-9.4c-.22-.27-.41-.46-.57-.58s-.4-.17-.72-.17c-.35,0-.63.11-.84.34-.21.22-.32.54-.32.96v12.08c0,.41.11.72.32.93.21.22.52.32.92.32s.71-.11.91-.32.31-.53.31-.93v-8.94l7.41,9.43c.22.27.43.47.61.59.19.12.44.18.76.18s.59-.11.79-.32c.19-.22.29-.51.29-.89v-12.18c0-.39-.1-.7-.31-.91-.21-.22-.51-.32-.91-.32Z"/><path class="cls-1" d="M69.1,69.96c-.2-.18-.48-.27-.84-.27h-10.75c-.36,0-.64.09-.84.27-.2.18-.3.45-.3.8s.1.61.3.8c.2.2.48.29.84.29h4.05v10.96c0,.42.11.75.34.98.23.24.56.36.99.36s.77-.12,1-.36c.22-.24.33-.57.33-.98v-10.96h4.05c.36,0,.64-.1.84-.29.2-.2.3-.46.3-.8s-.1-.62-.3-.8Z"/><path class="cls-1" d="M51.07,33.24c-1.61,0-2.87,1.35-2.8,2.95.01.28.02.56.01.85-.13,7.22-6.07,13.13-13.3,13.22-2.07.03-4.04-.42-5.8-1.23-1.05-.49-2.3-.28-3.12.54l-4.76,4.76c-.07.07-.07.19.02.26,3.75,2.84,8.42,4.53,13.48,4.53,12.33,0,22.33-10,22.33-22.33,0-1.16-.09-2.29-.27-3.4-.01-.08-.08-.14-.17-.14h-5.64Z"/><path class="cls-1" d="M26.22,24.07c.76.76,1.92.97,2.89.52,1.73-.82,3.67-1.27,5.71-1.27s3.9.44,5.6,1.22c1.04.48,2.26.26,3.07-.55l4.91-4.91c-3.76-2.89-8.47-4.61-13.58-4.61s-9.83,1.72-13.59,4.62l4.99,4.99Z"/><path class="cls-1" d="M22.09,45.38c.77-.77.96-1.94.5-2.93-.8-1.72-1.25-3.64-1.25-5.66s.46-3.98,1.27-5.71c.46-.99.28-2.16-.5-2.93l-4.98-4.98c-2.91,3.77-4.64,8.5-4.64,13.63s1.72,9.82,4.61,13.58l4.99-4.99Z"/><circle class="cls-1" cx="34.82" cy="36.79" r="6.44"/><circle class="cls-1" cx="13.64" cy="15.5" r="4.7"/><circle class="cls-1" cx="13.64" cy="58.06" r="4.7"/><g id="uuid-a8323419-a906-4524-b7a3-4c87a5d06302"><g id="uuid-a5c0b25e-424b-4112-b6d7-882d6e5902f0"><g id="text1594"><path id="path185" class="cls-1" d="M119.51,70.05l-2.14-6.11-2.14,6.11h4.28ZM120.77,73.67h-6.81l-1.09,3.19h-5.08l6.98-18.34h5.21l6.98,18.34h-5.08l-1.09-3.19Z"/><path id="path187" class="cls-1" d="M133.81,66.72h.9c.94,0,1.66-.19,2.16-.58.5-.39.75-.95.75-1.68,0-.73-.25-1.29-.75-1.68-.5-.39-1.22-.58-2.16-.58h-.9v4.52ZM144.29,76.86h-5.94l-4.55-7.05v7.05h-4.77v-18.34h7.42c1.02,0,1.91.15,2.68.46.76.29,1.39.7,1.87,1.22.5.52.88,1.12,1.12,1.8.26.68.39,1.41.39,2.19,0,1.39-.34,2.53-1.02,3.41-.66.86-1.65,1.44-2.97,1.75l5.76,7.52Z"/><path id="path189" class="cls-1" d="M154.97,66.59h9.46c0,.97-.04,1.86-.12,2.65s-.24,1.53-.49,2.21c-.34.96-.8,1.81-1.39,2.55-.58.73-1.27,1.35-2.07,1.85-.78.49-1.64.86-2.58,1.12-.94.26-1.93.39-2.97.39-1.43,0-2.73-.24-3.92-.71-1.17-.47-2.17-1.13-3.02-1.97-.84-.86-1.5-1.88-1.97-3.06-.47-1.2-.71-2.52-.71-3.96,0-1.43.23-2.73.68-3.92.47-1.2,1.13-2.22,1.97-3.06.86-.84,1.89-1.5,3.09-1.97s2.54-.71,4.01-.71c1.91,0,3.59.41,5.04,1.24s2.59,2.11,3.43,3.84l-4.52,1.87c-.42-1.01-.97-1.73-1.65-2.16-.66-.44-1.43-.66-2.29-.66-.71,0-1.36.14-1.95.41-.58.26-1.09.64-1.51,1.14-.41.49-.73,1.08-.97,1.78-.23.7-.34,1.48-.34,2.34,0,.78.1,1.5.29,2.16.21.66.52,1.24.92,1.73.41.49.91.87,1.51,1.14.6.26,1.3.39,2.09.39.47,0,.92-.05,1.36-.15.44-.11.83-.28,1.17-.51.36-.24.65-.55.88-.92.23-.37.38-.83.46-1.36h-3.92v-3.7Z"/><path id="path191" class="cls-1" d="M172.24,58.52v9.97c0,.54.02,1.09.05,1.65.05.55.17,1.05.36,1.51.21.45.54.83.97,1.12.44.28,1.05.41,1.85.41s1.4-.14,1.82-.41c.44-.29.76-.66.97-1.12.21-.45.33-.96.36-1.51.05-.57.07-1.12.07-1.65v-9.97h4.74v10.63c0,2.85-.66,4.94-1.97,6.25-1.3,1.31-3.3,1.97-6.01,1.97s-4.72-.66-6.03-1.97c-1.31-1.31-1.97-3.4-1.97-6.25v-10.63h4.77Z"/><path id="path193" class="cls-1" d="M197.35,63.21c-.52-.42-1.04-.73-1.56-.92-.52-.21-1.02-.32-1.51-.32-.62,0-1.12.15-1.51.44-.39.29-.58.67-.58,1.14,0,.32.1.59.29.8.19.21.45.4.75.56.32.15.68.28,1.07.39.41.11.8.24,1.19.36,1.56.52,2.69,1.22,3.41,2.09.73.86,1.09,1.99,1.09,3.38,0,.94-.16,1.79-.49,2.55-.31.76-.77,1.42-1.39,1.97-.6.54-1.35.95-2.24,1.24-.88.31-1.87.46-2.99.46-2.32,0-4.47-.69-6.45-2.07l2.04-3.84c.71.63,1.42,1.1,2.12,1.41.7.31,1.39.46,2.07.46.78,0,1.35-.18,1.73-.54.39-.36.58-.76.58-1.22,0-.28-.05-.51-.15-.71-.1-.21-.26-.4-.49-.56-.23-.18-.53-.34-.9-.49-.36-.15-.79-.31-1.31-.49-.62-.19-1.22-.41-1.82-.63-.58-.24-1.11-.56-1.58-.95-.45-.39-.83-.88-1.12-1.46-.28-.6-.41-1.35-.41-2.26s.15-1.73.44-2.46c.31-.75.73-1.38,1.26-1.9.55-.54,1.22-.95,1.99-1.24.79-.29,1.68-.44,2.65-.44.91,0,1.86.13,2.85.39.99.24,1.94.61,2.85,1.09l-1.9,3.72Z"/></g><g id="uuid-451afd43-a51d-42bd-82cc-033fbd978d12"><path id="path1596" class="cls-1" d="M114.37,46.11c.82-3.82,2.61-7.35,4.78-10.57,5.69-8.42,14.69-14.44,24.63-16.73,5.88-1.43,12.05-1.39,18.04-.76,1.94.17,3.93.56,5.84.9,1.88.42,3.94.94,5.77,1.56,5.27,1.67,10.4,4.31,14.69,7.82,1.62,1.34,3.14,2.82,4.46,4.46.76.94,6.11,8.25,6.96,9.37l-6.72-1.66s-.09-.08-.21-.04h-.08s-.04.01-.04.01l-.05.02c-.27.11-.49.26-.73.44-1.1.89-2.08,1.9-3.33,2.88-1.97,1.57-4.35,2.77-6.8,3.24l-.44-.72c1.86-1.19,3.49-2.67,4.81-4.43,1.44-1.78,2.35-4.06,4.29-5.44l-.14.96c-.56-.6-1.26-1.18-1.92-1.71-3.44-2.69-7.52-4.62-11.61-6.11-1.46-.49-3.59-1.16-5.07-1.5l-1.28-.33-1.3-.26c-2.01-.45-4.5-.77-6.54-1.04-2.03-.16-4.59-.4-6.62-.4-12.47-.76-24.65,3.93-33.72,12.46-1.95,1.8-3.77,3.75-5.39,5.84-.54.7-1.07,1.42-1.53,2.14l-.73-.43h0Z"/><path id="path1598" class="cls-1" d="M154.79,27.16c6.85,0,12.41,5.56,12.41,12.41s-5.56,12.41-12.41,12.41-12.41-5.56-12.41-12.41,5.56-12.41,12.41-12.41"/></g></g></g></svg>